<svg width="55" height="54" viewBox="0 0 55 54" fill="none" xmlns="http://www.w3.org/2000/svg">
<path d="M25.4604 0.0739746H37.0625L29.5423 37.4H17.9375L25.4604 0.0739746Z" fill="#5965E0"/>
<path d="M19.1474 8.10817e-05L7.68756 0L17.8661 37.1964H29.3973L19.1474 8.10817e-05Z" fill="#5965E0" fill-opacity="0.35"/>
<path d="M43.3979 0.0739746H55L47.4798 37.4H35.875L43.3979 0.0739746Z" fill="#5965E0"/>
<path d="M7.52292 0.0739746H19.125L11.6048 37.4H0L7.52292 0.0739746Z" fill="#5965E0"/>
<path d="M2.189 50V46.887C2.189 46.238 2.651 45.787 3.278 45.787C3.927 45.787 4.29 46.183 4.29 46.832V50H5.929V46.634C5.929 45.193 5.159 44.335 3.806 44.335C3.047 44.335 2.42 44.665 2.189 45.149V44.456H0.55V50H2.189ZM7.28183 47.261C7.28183 48.13 7.55683 48.823 8.11783 49.351C8.67883 49.868 9.40483 50.132 10.3178 50.132C11.2528 50.132 12.0558 49.791 12.7048 49.12L11.7478 48.207C11.3628 48.57 10.9118 48.746 10.3948 48.746C9.52583 48.746 8.95383 48.317 8.92083 47.657H13.1118C13.1228 47.492 13.1338 47.316 13.1338 47.129C13.1338 46.326 12.8698 45.666 12.3418 45.127C11.8138 44.588 11.1318 44.313 10.2848 44.313C9.41583 44.313 8.68983 44.577 8.12883 45.116C7.56783 45.644 7.28183 46.348 7.28183 47.217V47.261ZM8.94283 46.59C8.98683 46.073 9.56983 45.666 10.2848 45.666C10.9448 45.666 11.4838 46.073 11.4838 46.59H8.94283ZM17.3357 44.291C16.4777 44.291 15.7517 44.577 15.1467 45.149C14.5527 45.71 14.2557 46.403 14.2557 47.228C14.2557 48.053 14.5527 48.746 15.1467 49.318C15.7517 49.879 16.4777 50.165 17.3357 50.165C18.1827 50.165 18.9087 49.879 19.5137 49.318C20.1187 48.746 20.4157 48.053 20.4157 47.228C20.4157 46.403 20.1187 45.71 19.5137 45.149C18.9087 44.577 18.1827 44.291 17.3357 44.291ZM15.8947 47.228C15.8947 46.821 16.0377 46.48 16.3127 46.205C16.5877 45.919 16.9287 45.776 17.3357 45.776C17.7427 45.776 18.0837 45.919 18.3587 46.205C18.6337 46.48 18.7767 46.821 18.7767 47.228C18.7767 47.635 18.6337 47.976 18.3587 48.262C18.0837 48.537 17.7427 48.68 17.3357 48.68C16.9287 48.68 16.5877 48.537 16.3127 48.262C16.0377 47.987 15.8947 47.635 15.8947 47.228ZM24.0567 50L25.0247 46.832L26.0037 50H27.3567L29.1167 44.456H27.5987L26.6197 47.547L25.6627 44.456H24.3867L23.4407 47.547L22.4617 44.456H20.9437L22.6927 50H24.0567ZM32.4035 44.357C31.6225 44.357 30.9625 44.632 30.4345 45.193C29.9175 45.743 29.6535 46.425 29.6535 47.228C29.6535 48.031 29.9175 48.713 30.4345 49.274C30.9625 49.824 31.6225 50.099 32.4035 50.099C33.2395 50.099 33.8885 49.758 34.0535 49.274V50H35.6925V44.456H34.0535V45.182C33.8885 44.698 33.2395 44.357 32.4035 44.357ZM32.7005 48.614C32.3045 48.614 31.9745 48.482 31.6995 48.218C31.4245 47.943 31.2925 47.613 31.2925 47.228C31.2925 46.843 31.4245 46.513 31.6995 46.249C31.9745 45.974 32.3045 45.842 32.7005 45.842C33.1075 45.842 33.4485 45.974 33.7235 46.249C34.0095 46.513 34.1525 46.843 34.1525 47.228C34.1525 47.613 34.0095 47.943 33.7235 48.218C33.4485 48.482 33.1075 48.614 32.7005 48.614ZM38.9703 50V42.333H37.3313V50H38.9703ZM42.2595 50V42.333H40.6205V50H42.2595ZM43.6678 47.261C43.6678 48.13 43.9428 48.823 44.5038 49.351C45.0648 49.868 45.7908 50.132 46.7038 50.132C47.6388 50.132 48.4418 49.791 49.0908 49.12L48.1338 48.207C47.7488 48.57 47.2978 48.746 46.7808 48.746C45.9118 48.746 45.3398 48.317 45.3068 47.657H49.4978C49.5088 47.492 49.5198 47.316 49.5198 47.129C49.5198 46.326 49.2558 45.666 48.7278 45.127C48.1998 44.588 47.5178 44.313 46.6708 44.313C45.8018 44.313 45.0758 44.577 44.5148 45.116C43.9538 45.644 43.6678 46.348 43.6678 47.217V47.261ZM45.3288 46.59C45.3728 46.073 45.9558 45.666 46.6708 45.666C47.3308 45.666 47.8698 46.073 47.8698 46.59H45.3288ZM52.8416 50V45.941H54.0626V44.456H52.8416V42.333H51.2466V44.456H50.5096V45.941H51.2466V50H52.8416Z" fill="#5965E0"/>
</svg>
